<?xml version="1.0" standalone="no"?>
<!DOCTYPE svg PUBLIC "-//W3C//DTD SVG 20010904//EN"
 "http://www.w3.org/TR/2001/REC-SVG-20010904/DTD/svg10.dtd">
<svg version="1.0" xmlns="http://www.w3.org/2000/svg"
 width="187.000000pt" height="67.000000pt" viewBox="0 0 187.000000 67.000000"
 preserveAspectRatio="xMidYMid meet">

<g transform="translate(0.000000,67.000000) scale(0.100000,-0.100000)"
fill="#000000" stroke="none">
<path d="M675 407 c0 -43 3 -53 17 -53 13 0 16 6 12 23 -5 18 -2 23 14 23 24
0 37 27 21 46 -6 8 -23 14 -38 14 -25 0 -26 -2 -26 -53z m53 20 c2 -10 -3 -17
-12 -17 -10 0 -16 9 -16 21 0 24 23 21 28 -4z"/>
<path d="M765 408 c0 -44 3 -54 17 -54 13 0 16 6 11 26 l-6 25 26 -27 c28 -30
48 -39 26 -12 -7 9 -13 33 -14 53 0 33 -3 36 -30 39 -30 3 -30 3 -30 -50z m45
22 c0 -11 -4 -20 -10 -20 -5 0 -10 9 -10 20 0 11 5 20 10 20 6 0 10 -9 10 -20z"/>
<path d="M865 436 c-32 -49 24 -109 66 -70 31 28 20 94 -15 94 -6 0 -5 -5 2
-12 26 -26 8 -96 -22 -85 -20 8 -22 83 -3 90 9 4 9 6 0 6 -7 1 -20 -10 -28
-23z"/>
<path d="M986 444 c-37 -37 4 -105 54 -89 23 7 29 55 6 55 -9 0 -12 -7 -9 -19
6 -24 -13 -36 -32 -21 -20 16 -19 55 1 74 8 9 11 16 5 16 -5 0 -17 -7 -25 -16z"/>
<path d="M1036 453 c5 -5 12 -12 16 -18 4 -6 8 -2 8 8 0 9 -7 17 -17 17 -9 0
-12 -3 -7 -7z"/>
<path d="M1085 410 c0 -33 4 -50 13 -50 6 0 12 9 12 21 0 18 2 18 26 -8 19
-21 24 -23 18 -8 -4 11 -8 36 -8 55 -1 31 -4 35 -31 38 -30 3 -30 2 -30 -48z
m45 20 c0 -19 -11 -26 -23 -14 -8 8 3 34 14 34 5 0 9 -9 9 -20z"/>
<path d="M1181 411 c2 -39 7 -51 21 -55 14 -3 16 -1 10 7 -5 7 -9 29 -9 50 -1
33 2 38 18 34 10 -3 19 -1 19 4 0 5 -14 9 -30 9 -31 0 -31 -1 -29 -49z"/>
<path d="M1263 444 c-3 -8 4 -25 16 -38 32 -34 25 -65 -8 -33 -11 10 -13 9 -9
-3 6 -21 38 -19 52 3 9 15 7 22 -13 38 -13 11 -21 25 -17 34 3 8 1 15 -5 15
-5 0 -12 -7 -16 -16z"/>
<path d="M1335 408 c0 -48 2 -53 22 -53 14 0 19 4 13 10 -15 14 -12 35 5 35 8
0 15 4 15 10 0 5 -7 7 -15 4 -11 -4 -15 0 -15 16 0 17 4 21 20 17 11 -3 20 -1
20 4 0 5 -15 9 -32 9 l-33 0 0 -52z"/>
<path d="M1439 423 c10 -21 21 -45 24 -53 3 -10 10 -2 21 23 20 46 29 47 24 2
-2 -20 0 -35 7 -35 5 0 10 22 10 50 0 57 -14 64 -34 18 l-14 -32 -16 32 c-8
18 -20 32 -28 32 -9 0 -8 -10 6 -37z"/>
<path d="M1562 448 c-18 -18 -14 -63 7 -82 42 -39 98 21 66 70 -8 13 -21 24
-27 24 -9 0 -9 -3 0 -12 15 -15 16 -74 2 -83 -30 -19 -55 56 -28 83 7 7 8 12
2 12 -5 0 -15 -5 -22 -12z"/>
<path d="M1663 444 c-3 -8 4 -25 16 -38 22 -23 28 -46 11 -46 -5 0 -14 8 -20
18 -10 15 -10 15 -8 -3 4 -25 37 -27 52 -3 8 13 5 22 -13 42 -13 13 -20 29
-16 35 3 6 1 11 -5 11 -6 0 -13 -7 -17 -16z"/>
<path d="M1220 410 c0 -5 5 -10 10 -10 6 0 10 5 10 10 0 6 -4 10 -10 10 -5 0
-10 -4 -10 -10z"/>
<path d="M325 384 c-94 -38 -109 -48 -120 -78 -8 -25 -6 -31 18 -52 16 -13 36
-24 45 -23 12 0 11 3 -5 9 -47 19 -20 67 48 89 38 12 61 33 72 64 4 9 5 16 4
16 -1 -1 -29 -12 -62 -25z"/>
<path d="M1426 384 c-8 -20 -8 -24 2 -24 4 0 8 9 9 20 2 24 -3 26 -11 4z"/>
<path d="M1237 373 c-4 -3 -7 -11 -7 -17 0 -6 5 -5 12 2 6 6 9 14 7 17 -3 3
-9 2 -12 -2z"/>
<path d="M1395 370 c-3 -5 -1 -10 4 -10 6 0 11 5 11 10 0 6 -2 10 -4 10 -3 0
-8 -4 -11 -10z"/>
<path d="M520 345 c6 -8 9 -22 6 -33 -6 -18 -64 -52 -90 -52 -15 0 -40 -27
-49 -53 -6 -15 -4 -16 16 -3 12 7 46 21 75 31 29 9 59 23 67 32 20 20 19 56
-3 76 -23 21 -39 22 -22 2z m19 -66 c-19 -11 -20 -6 -6 24 11 25 12 25 15 6 2
-12 -2 -25 -9 -30z m-45 -24 c-10 -8 -28 -15 -39 -15 -12 0 -26 -4 -33 -10 -9
-7 -9 -7 -2 2 9 11 62 34 84 37 6 0 1 -6 -10 -14z"/>
<path d="M576 331 c-7 -11 18 -33 27 -24 4 3 7 12 7 20 0 15 -26 18 -34 4z"/>
<path d="M282 300 c3 -8 15 -45 27 -83 25 -75 42 -97 74 -97 28 0 41 9 56 37
16 32 14 36 -9 13 -26 -26 -52 -14 -69 32 -21 58 -35 80 -61 97 -20 14 -23 14
-18 1z"/>
<path d="M152 273 c4 -23 32 -23 36 0 2 12 -3 17 -18 17 -15 0 -20 -5 -18 -17z"/>
<path d="M675 206 c0 -81 21 -73 27 9 2 44 0 55 -12 55 -12 0 -15 -14 -15 -64z"/>
<path d="M740 224 c6 -53 28 -76 53 -56 17 15 27 102 12 102 -6 0 -9 -19 -7
-45 4 -40 2 -45 -17 -45 -23 0 -37 36 -28 70 3 12 0 20 -7 20 -8 0 -10 -14 -6
-46z"/>
<path d="M838 220 c2 -27 7 -50 11 -50 4 0 5 17 3 38 l-4 37 26 -30 c14 -16
25 -33 26 -37 0 -5 4 -8 9 -8 5 0 11 23 13 50 2 31 -1 50 -8 50 -6 0 -9 -14
-7 -32 l4 -33 -28 33 c-39 45 -49 41 -45 -18z"/>
<path d="M940 260 c0 -5 7 -7 15 -4 12 5 15 -3 15 -40 0 -30 4 -46 13 -46 8 0
11 14 8 46 -3 44 -2 47 18 41 11 -3 21 -1 21 4 0 5 -20 9 -45 9 -25 0 -45 -4
-45 -10z"/>
<path d="M1044 245 c-20 -30 -11 -62 22 -77 31 -14 64 13 64 52 0 52 -57 70
-86 25z m64 -8 c6 -30 -7 -67 -23 -67 -19 0 -36 41 -28 69 7 27 46 25 51 -2z"/>
<path d="M1157 263 c-14 -13 -6 -41 16 -56 19 -13 20 -17 8 -29 -11 -10 -14
-10 -18 0 -3 6 -10 12 -16 12 -6 0 -4 -7 5 -16 12 -13 20 -14 37 -5 28 15 27
37 -4 57 -30 20 -33 38 -5 31 11 -3 20 -1 20 4 0 10 -33 12 -43 2z"/>
<path d="M387 104 c-14 -15 -6 -34 14 -34 14 0 19 5 17 17 -3 18 -20 27 -31
17z"/>
</g>
</svg>
