<?xml version="1.0" standalone="no"?>
<!DOCTYPE svg PUBLIC "-//W3C//DTD SVG 20010904//EN"
 "http://www.w3.org/TR/2001/REC-SVG-20010904/DTD/svg10.dtd">
<svg version="1.0" xmlns="http://www.w3.org/2000/svg"
 width="1024.000000pt" height="576.000000pt" viewBox="0 0 1024.000000 576.000000"
 preserveAspectRatio="xMidYMid meet">

<g transform="translate(0.000000,576.000000) scale(0.100000,-0.100000)"
fill="#000000" stroke="none">
<path d="M7645 5720 c-219 -38 -713 -119 -1235 -204 -538 -88 -1211 -199
-1865 -306 -137 -23 -308 -50 -380 -60 -115 -17 -196 -29 -354 -56 -41 -7 -43
-8 -25 -22 21 -15 27 -16 -816 9 -195 5 -383 7 -416 3 -56 -5 -81 0 -275 56
-118 34 -248 72 -289 85 -42 13 -93 26 -114 30 l-38 8 109 -143 108 -142 70
-25 c39 -13 76 -26 84 -29 11 -4 11 -7 -2 -22 -8 -9 -38 -61 -66 -116 -29 -54
-71 -133 -94 -175 -23 -42 -46 -85 -52 -95 -5 -11 -14 -21 -20 -22 -8 -3 -376
468 -487 623 -32 44 -57 120 -60 181 -1 23 -4 42 -8 42 -3 0 -21 -25 -39 -55
-30 -50 -37 -55 -79 -61 -26 -5 -53 -7 -59 -6 -7 2 -13 -6 -13 -18 0 -16 6
-20 30 -20 22 0 28 -4 24 -15 -5 -11 1 -15 20 -15 19 0 27 -6 32 -25 3 -14 13
-25 21 -25 13 0 13 -2 2 -17 -8 -9 -9 -14 -3 -10 7 4 18 -7 28 -28 10 -19 28
-42 41 -51 13 -8 28 -29 34 -45 5 -16 17 -29 26 -29 9 0 15 -6 12 -12 -2 -7
-10 -12 -16 -11 -6 2 -11 -1 -11 -6 0 -12 30 -22 43 -14 7 4 8 0 3 -12 -8 -21
14 -105 27 -105 4 0 5 -5 2 -10 -3 -6 1 -13 10 -16 8 -4 14 -12 13 -18 -2 -7
7 -26 20 -42 12 -16 52 -71 88 -123 71 -99 72 -111 10 -111 -29 0 -29 -1 -10
-15 18 -15 18 -15 0 -8 -14 5 -17 3 -12 -6 9 -13 145 -9 256 9 30 5 118 14
195 20 77 6 266 25 420 41 154 16 303 31 330 34 74 8 582 60 960 100 77 8 250
26 385 40 280 29 428 45 725 80 116 13 233 27 260 30 28 3 104 14 170 25 66
10 145 22 175 26 30 4 57 8 60 9 3 1 30 5 60 8 30 4 73 10 95 13 22 2 64 7 92
11 68 7 58 23 -15 24 l-57 1 45 9 c62 12 604 70 750 80 14 1 -2 5 -35 10 -94
12 -530 27 -1410 49 -815 20 -1119 29 -1113 36 2 1 73 10 158 19 226 23 410
43 535 60 61 8 196 24 300 35 443 47 778 82 1125 120 102 11 464 49 805 85
341 36 766 81 945 100 179 19 413 44 520 55 107 11 276 29 375 40 267 29 530
57 810 85 138 14 309 32 380 40 72 8 163 17 203 21 52 4 72 10 72 20 0 12
-176 14 -1187 13 l-1188 -1 -220 -38z m-6215 -695 c10 -12 10 -15 -3 -15 -8 0
-17 7 -21 15 -3 8 -2 15 3 15 5 0 14 -7 21 -15z"/>
<path d="M3915 5504 c-412 -44 -883 -93 -1025 -106 -63 -6 -118 -14 -123 -17
-7 -7 175 -61 206 -61 10 0 127 18 260 40 133 21 429 69 657 105 228 36 420
68 425 70 29 10 -123 -1 -400 -31z"/>
<path d="M10219 5376 c-3 -3 -79 -12 -169 -21 -91 -8 -196 -20 -235 -25 -55
-8 -583 -66 -865 -95 -66 -7 -788 -88 -1200 -134 -195 -22 -483 -54 -640 -71
-157 -17 -307 -35 -335 -40 -65 -12 567 -3 720 10 198 17 1906 189 2145 216
50 5 60 4 60 -9 0 -8 -33 -95 -74 -194 -40 -98 -124 -302 -186 -453 -62 -151
-150 -365 -195 -475 -311 -756 -487 -1204 -481 -1222 4 -8 2 -11 -5 -7 -8 4
-9 -1 -4 -16 6 -18 4 -22 -7 -18 -8 4 -14 -1 -14 -11 -1 -9 -5 -25 -9 -36 -7
-16 -6 -18 6 -7 16 15 49 16 49 1 0 -6 8 -8 19 -4 11 3 22 1 26 -4 6 -11 93
-41 135 -46 14 -2 32 -13 42 -24 9 -12 23 -21 31 -21 7 0 24 -9 37 -20 13 -11
31 -20 42 -20 15 0 17 -5 12 -25 -9 -35 12 -32 31 6 16 30 17 30 41 14 20 -13
28 -14 40 -4 12 10 16 8 21 -9 6 -24 19 -29 26 -9 3 7 6 5 6 -5 1 -28 19 -21
25 10 7 35 46 288 46 300 0 5 32 30 70 56 39 25 70 48 70 50 0 3 -25 12 -54
20 -30 9 -57 20 -61 25 -3 5 4 72 15 148 29 200 29 203 46 203 24 0 226 -61
272 -83 129 -59 209 -220 183 -364 -23 -119 -65 -167 -277 -312 -169 -116
-217 -153 -208 -160 5 -3 9 -13 9 -21 0 -9 9 -15 23 -14 12 0 22 -4 22 -9 0
-5 21 4 48 19 26 16 72 41 101 56 30 16 58 33 62 39 3 6 9 -3 12 -20 5 -23 12
-31 27 -31 12 0 25 -10 31 -23 10 -23 60 -57 84 -57 7 0 15 7 19 15 3 8 12 15
21 15 8 0 15 4 15 10 0 5 11 0 25 -12 27 -23 33 -53 13 -62 -7 -3 -3 -3 10 0
15 4 22 1 22 -8 0 -11 24 -13 126 -10 92 3 125 1 120 -7 -4 -6 0 -11 11 -11
15 0 16 -2 3 -10 -10 -7 -12 -12 -4 -18 6 -4 14 -14 17 -22 3 -8 6 679 6 1528
1 848 -3 1542 -7 1542 -5 0 -11 -2 -13 -4z m-1448 -2569 c-10 -9 -11 -8 -5 6
3 10 9 15 12 12 3 -3 0 -11 -7 -18z m537 -188 c-3 -8 -7 -3 -11 10 -4 17 -3
21 5 13 5 -5 8 -16 6 -23z"/>
<path d="M0 5035 c0 -30 3 -55 8 -55 16 1 44 29 37 39 -3 6 1 11 10 11 23 0
49 27 32 33 -7 3 -2 9 13 15 21 9 16 11 -37 11 l-63 1 0 -55z"/>
<path d="M9090 4978 c-270 -22 -972 -82 -1510 -128 -250 -22 -509 -47 -555
-55 -16 -3 -52 -8 -80 -11 -27 -3 -59 -7 -70 -8 -11 -2 -49 -8 -85 -14 -208
-38 -481 -77 -840 -122 -85 -11 -240 -30 -345 -44 -104 -13 -251 -30 -325 -36
-74 -6 -151 -13 -170 -16 -51 -6 -268 -22 -390 -29 -58 -3 -137 -8 -177 -10
-65 -4 -281 -8 -343 -6 -20 1 -22 3 -10 11 12 8 8 10 -15 11 -55 2 -60 4 -58
17 2 8 -10 12 -38 12 -121 0 -1867 -142 -2166 -177 -29 -3 -58 -12 -64 -19 -6
-8 -19 -14 -28 -15 -9 -1 -5 -4 8 -8 22 -6 23 -8 8 -23 -10 -9 -17 -28 -17
-43 0 -14 -5 -36 -11 -47 -6 -12 -11 -43 -11 -69 0 -47 -5 -54 -34 -50 -7 1
-14 -6 -18 -14 -3 -9 -2 -14 2 -11 4 2 14 1 21 -4 8 -4 28 -2 48 7 38 15 151
18 198 5 27 -8 30 -12 28 -47 -3 -49 -13 -58 -47 -45 -69 26 -168 1 -187 -47
-26 -69 16 -126 119 -163 85 -31 139 -72 163 -123 51 -113 -3 -241 -120 -282
-74 -26 -212 -16 -240 18 -7 9 -7 24 0 51 8 30 14 36 27 30 124 -53 227 -30
253 56 10 32 9 44 -7 76 -20 39 -50 59 -151 97 -74 29 -115 61 -138 106 -13
27 -18 32 -26 20 -6 -9 -7 -3 -3 19 6 27 4 31 -10 26 -9 -4 -20 -19 -23 -35
-5 -26 -18 -34 -45 -30 -5 0 -8 -8 -8 -18 0 -10 -6 -21 -12 -24 -7 -3 -22 -22
-33 -43 -25 -51 -25 -51 -35 -34 -8 13 -10 13 -10 -1 0 -25 -39 -69 -55 -62
-8 3 -15 0 -15 -5 0 -6 -8 -13 -17 -16 -10 -3 -43 -28 -73 -56 -30 -27 -60
-49 -67 -50 -10 0 -124 -53 -195 -91 -10 -5 -25 -9 -33 -9 -8 0 -15 -4 -15
-10 0 -5 -13 -7 -28 -4 -28 6 -54 -9 -65 -38 -3 -8 -18 1 -41 27 -33 37 -35
38 -36 16 0 -20 -2 -22 -15 -11 -11 9 -33 11 -83 5 -115 -14 -145 -13 -202 8
-30 11 -73 20 -96 21 -24 1 -47 8 -58 19 -10 10 -26 15 -39 12 -12 -3 -47 -7
-77 -9 -30 -2 -103 -9 -162 -16 -87 -10 -111 -10 -123 0 -13 11 -15 -150 -15
-1504 l0 -1516 33 0 c17 0 90 7 162 15 161 18 160 18 177 1 22 -21 107 -62
167 -80 30 -9 90 -16 133 -16 74 0 136 9 508 75 80 15 161 28 180 31 30 4 165
29 363 66 32 6 53 14 47 18 -7 4 16 7 49 6 45 -1 64 3 71 14 5 8 13 15 17 16
4 0 15 3 23 7 8 3 22 8 30 11 8 3 -6 4 -32 2 -26 -1 -45 1 -42 6 3 4 24 9 47
10 l42 1 -45 8 c-40 6 -38 7 22 5 38 -1 68 2 68 6 0 4 15 8 33 8 22 0 28 -3
18 -9 -11 -7 -9 -10 10 -14 15 -3 8 -5 -18 -6 -23 0 -45 -5 -48 -11 -9 -15
-27 -12 -19 2 5 10 4 10 -6 1 -17 -16 -5 -31 22 -28 13 1 29 3 36 4 7 0 10 6
6 12 -5 9 8 10 45 7 28 -3 54 -1 57 3 3 5 24 10 47 11 l42 1 -39 4 c-29 3 -36
7 -25 14 10 6 7 9 -14 9 -16 0 -26 -4 -23 -9 3 -5 -1 -12 -10 -15 -22 -8 -26
-8 -19 4 3 5 -2 10 -11 10 -12 0 -15 3 -8 10 6 6 54 12 106 13 53 1 94 5 91
10 -8 13 87 7 123 -8 38 -16 112 -21 159 -11 17 3 44 8 60 10 17 2 44 10 60
17 l30 12 -30 7 c-16 4 -66 24 -110 45 -44 20 -141 63 -215 95 -74 32 -166 72
-205 90 -38 17 -79 35 -90 40 -49 22 -438 191 -505 220 -41 18 -149 65 -240
105 -91 40 -244 108 -340 150 -221 96 -251 112 -306 157 -86 71 -137 145 -176
258 -84 245 42 545 277 657 85 40 72 38 970 177 88 14 250 40 360 57 230 37
359 46 439 29 130 -27 276 -130 345 -244 28 -47 90 -201 191 -471 118 -319
154 -415 205 -546 47 -121 65 -196 65 -276 0 -168 -74 -313 -223 -437 -51 -42
-57 -51 -41 -56 11 -4 30 -4 44 0 29 9 164 33 305 55 55 8 226 29 380 45 154
16 304 32 332 36 29 3 74 7 100 9 27 2 82 6 123 10 l75 6 68 -93 c37 -51 92
-124 122 -163 l54 -70 -37 -6 c-64 -11 -579 -69 -1107 -124 -132 -14 -274 -29
-315 -34 -41 -6 -106 -12 -145 -16 -38 -3 -128 -12 -200 -20 -71 -8 -215 -24
-320 -35 -104 -11 -361 -38 -570 -60 -209 -22 -443 -47 -520 -55 -77 -8 -203
-21 -280 -30 -77 -8 -248 -26 -380 -40 -801 -84 -825 -87 -825 -107 0 -17 48
-18 1012 -18 1116 0 977 -6 1368 60 63 11 239 40 390 64 151 25 412 68 580 95
168 28 496 82 730 120 234 38 480 77 548 85 68 9 128 17 134 19 6 1 34 -27 61
-63 27 -36 56 -74 66 -85 9 -11 63 -82 120 -158 l104 -137 156 0 156 0 -47 31
c-34 23 -87 84 -195 226 -81 107 -200 263 -263 347 -323 424 -422 557 -417
562 5 6 349 63 378 64 10 0 62 -60 123 -140 59 -77 111 -140 115 -140 5 0 174
18 377 40 538 59 544 60 605 60 l56 0 63 -105 c35 -58 70 -105 79 -105 8 0 22
6 30 13 15 13 118 83 621 422 372 251 515 348 531 362 9 7 173 39 380 73 200
34 372 65 381 70 10 5 24 7 33 4 11 -4 14 -2 9 9 -4 12 0 15 18 11 13 -2 5 2
-17 9 -35 12 -37 14 -16 20 20 5 21 8 10 29 -17 31 -18 69 -2 74 45 14 45 14
34 28 -18 21 -4 42 30 44 74 6 125 46 108 87 -7 20 -8 20 -8 -1 -2 -37 -32
-51 -131 -64 -52 -6 -104 -13 -115 -16 -11 -2 -2 5 20 15 22 11 33 20 24 20
-9 1 -22 8 -29 16 -10 13 -9 15 10 15 19 0 21 4 16 25 -5 18 -2 25 8 25 8 0
16 7 20 15 3 8 1 15 -4 15 -5 0 -5 13 1 30 6 16 15 28 19 25 5 -3 9 3 9 12 0
10 3 29 5 43 2 14 5 31 5 38 1 6 10 12 22 12 15 0 19 5 15 15 -3 10 1 15 13
15 12 0 22 13 30 42 16 52 39 88 57 88 27 0 55 39 49 68 -3 15 -2 21 1 15 9
-21 27 -15 21 7 -3 11 -1 23 4 26 8 4 11 -9 8 -32 0 -4 5 -10 12 -15 16 -9 21
6 244 716 253 809 526 1706 523 1718 -2 9 -52 8 -208 -5z m-1530 -530 c113
-57 132 -208 39 -301 l-38 -38 34 -30 c29 -26 41 -51 74 -156 22 -70 38 -130
35 -135 -3 -4 -22 -8 -43 -8 -43 0 -40 -6 -86 139 -41 127 -64 145 -179 142
l-39 -1 6 -62 c4 -35 9 -102 13 -150 l7 -88 -46 0 -46 0 -5 53 c-17 161 -44
623 -38 629 14 14 94 26 182 27 70 1 94 -3 130 -21z m-435 -48 l0 -35 -125
-10 -125 -10 -3 -35 c-4 -52 12 -175 23 -174 6 1 60 5 121 8 l111 7 7 -32 c3
-18 2 -37 -2 -41 -7 -7 -161 -24 -241 -28 -6 0 11 -225 18 -233 4 -4 66 -3
136 3 140 11 145 10 145 -42 0 -21 -6 -29 -22 -32 -34 -7 -340 -27 -344 -23
-7 6 -55 689 -49 695 8 8 173 20 265 18 l85 -1 0 -35z m-465 -29 l0 -38 -52
-7 c-29 -3 -78 -6 -108 -6 -101 0 -100 1 -94 -99 9 -144 -5 -131 134 -124
l120 6 0 -40 0 -40 -117 -9 c-103 -8 -118 -11 -117 -26 1 -10 5 -81 9 -159 l7
-140 -43 3 -44 3 -6 70 c-14 158 -42 615 -38 620 5 5 211 21 297 24 l52 1 0
-39z m-466 -7 c3 -9 6 -26 6 -39 0 -28 -11 -31 -162 -41 l-98 -6 0 -32 c0 -18
3 -68 7 -110 l6 -78 121 4 121 3 3 -33 c2 -20 -2 -34 -10 -37 -7 -3 -60 -8
-118 -13 l-105 -7 0 -60 c0 -33 3 -103 5 -155 l5 -95 -42 -3 c-41 -3 -41 -3
-47 35 -3 21 -8 83 -11 138 -3 55 -13 192 -21 304 -8 112 -12 206 -9 210 4 3
68 11 143 17 199 16 199 16 206 -2z m-650 -36 c78 -22 135 -75 180 -168 30
-63 31 -70 31 -195 0 -123 -2 -133 -27 -182 -58 -110 -145 -166 -258 -167
-121 -2 -225 73 -271 193 -30 76 -37 227 -15 303 49 171 200 262 360 216z
m-930 -66 c2 -4 14 -143 26 -307 12 -165 23 -301 25 -303 1 -2 60 2 129 8 70
6 131 8 136 5 6 -3 10 -21 10 -40 0 -39 7 -37 -219 -55 -98 -7 -137 -7 -142 1
-3 6 -9 59 -13 117 -3 59 -14 210 -23 335 -14 196 -14 230 -2 238 17 11 66 12
73 1z m-263 -355 c72 -180 128 -334 125 -342 -3 -10 -19 -15 -44 -15 l-39 0
-38 98 c-21 53 -41 101 -45 105 -5 5 -56 5 -115 0 l-108 -8 -26 -110 -26 -110
-44 -3 -44 -3 7 40 c3 22 26 124 51 228 25 103 60 245 76 315 33 137 34 137
102 135 l38 -2 130 -328z m-547 281 c5 -24 46 -604 46 -649 0 -23 -5 -27 -35
-31 -19 -2 -39 -2 -44 1 -13 9 -59 673 -48 689 5 6 25 12 43 12 27 0 35 -5 38
-22z m-199 -9 c10 -10 12 -23 6 -44 -8 -32 -11 -33 -92 -20 -70 11 -153 -17
-205 -69 -124 -123 -86 -389 67 -466 48 -25 152 -27 209 -4 45 18 55 14 65
-28 6 -23 2 -29 -24 -42 -46 -25 -167 -38 -229 -26 -63 12 -132 50 -168 93
-90 107 -114 319 -50 444 65 126 173 186 324 180 55 -2 88 -8 97 -18z m-559
-43 c14 -58 9 -60 -129 -70 l-127 -9 0 -57 c0 -31 3 -79 7 -105 l6 -48 124 8
123 7 0 -40 0 -40 -82 -6 c-46 -4 -100 -9 -122 -12 l-38 -6 7 -112 c3 -61 10
-115 14 -119 5 -4 62 -3 127 2 65 6 124 11 131 11 18 0 28 -60 12 -75 -16 -15
-338 -37 -353 -24 -10 9 -60 678 -51 687 3 3 74 11 158 18 84 6 160 12 169 13
11 0 20 -8 24 -23z m-567 -42 c168 -70 158 -325 -16 -395 -15 -7 -57 -14 -93
-18 l-65 -6 5 -90 c2 -49 4 -110 5 -135 l0 -45 -42 -3 c-30 -2 -43 1 -43 10 0
7 -4 63 -10 123 -23 269 -41 548 -35 553 12 13 161 31 209 26 27 -3 65 -12 85
-20z m5465 -503 c11 -17 25 -316 15 -322 -5 -3 -105 -11 -222 -18 -116 -6
-232 -14 -256 -17 l-44 -6 7 -101 c3 -55 8 -103 11 -105 2 -2 102 3 222 11
120 8 222 12 226 8 11 -11 30 -312 20 -321 -4 -5 -106 -15 -225 -22 -120 -8
-219 -16 -221 -19 -4 -4 11 -231 16 -235 1 -1 113 6 247 16 135 11 257 20 271
20 l26 0 12 -127 c16 -179 15 -210 -7 -215 -9 -3 -51 -6 -92 -7 -41 -1 -181
-8 -310 -16 -129 -8 -290 -17 -357 -21 l-121 -7 -6 54 c-6 48 -50 692 -76
1114 -5 88 -13 185 -16 216 -4 39 -2 59 6 64 7 4 188 20 404 35 464 33 463 33
470 21z m-1569 -113 c2 -7 15 -193 30 -413 42 -652 44 -677 50 -683 2 -3 100
1 217 8 117 7 236 13 263 14 l50 1 7 -80 c3 -44 8 -118 10 -165 l3 -85 -85 -6
c-299 -23 -780 -51 -792 -46 -11 4 -17 33 -22 119 -4 62 -18 277 -31 478 -49
737 -56 843 -51 848 6 5 181 18 284 20 42 2 64 -2 67 -10z m-779 -445 c86
-219 210 -532 276 -696 65 -163 118 -304 118 -312 0 -19 -15 -21 -200 -33
-131 -8 -157 -8 -166 5 -7 7 -34 75 -60 150 l-49 136 -135 -7 c-74 -3 -165 -9
-202 -12 l-66 -7 -21 -91 c-12 -50 -28 -120 -35 -155 -8 -34 -16 -64 -18 -66
-8 -7 -324 -23 -330 -17 -4 4 -3 23 2 42 6 19 35 143 65 275 182 800 264 1148
272 1155 8 8 211 25 335 29 l56 1 158 -397z m-4766 337 c0 -5 -5 -10 -11 -10
-5 0 -7 5 -4 10 3 6 8 10 11 10 2 0 4 -4 4 -10z m3443 -25 c32 -8 84 -27 115
-42 61 -28 182 -109 182 -122 0 -4 -13 -27 -29 -52 -15 -24 -52 -81 -81 -127
l-52 -83 -42 26 c-68 42 -168 86 -220 96 -63 12 -110 3 -147 -28 -24 -21 -29
-32 -29 -72 0 -79 36 -109 180 -150 209 -60 300 -106 363 -183 104 -127 125
-337 50 -496 -56 -118 -185 -209 -343 -243 -138 -29 -342 -8 -500 52 -121 47
-117 40 -86 145 15 49 36 118 46 153 11 35 21 66 24 68 2 3 35 -9 73 -25 100
-44 168 -62 259 -69 127 -9 181 17 191 95 7 49 -15 93 -60 121 -18 11 -83 33
-145 50 -242 63 -349 143 -401 299 -26 77 -28 213 -5 293 60 205 258 326 514
314 47 -2 111 -11 143 -20z m-2416 -2761 c-3 -3 -12 -4 -19 -1 -8 3 -5 6 6 6
11 1 17 -2 13 -5z m-57 -14 c11 -7 3 -10 -30 -9 -34 0 -40 2 -25 9 27 12 37
12 55 0z m39 -36 c12 -11 -12 -16 -32 -6 -12 6 -29 13 -37 16 -8 3 3 3 25 0
22 -3 42 -8 44 -10z"/>
<path d="M7385 4393 c-16 -2 -34 -8 -39 -13 -4 -4 -5 -60 -1 -124 l7 -116 52
0 c95 1 166 55 166 129 0 35 -26 88 -52 105 -26 17 -88 26 -133 19z"/>
<path d="M5397 4246 c-48 -18 -63 -30 -92 -80 -73 -127 -42 -354 60 -432 67
-51 170 -45 229 13 100 101 98 329 -4 446 -55 62 -118 79 -193 53z"/>
<path d="M4167 4110 c-3 -8 -12 -49 -21 -90 -9 -41 -22 -101 -30 -133 l-14
-59 83 4 c46 1 86 6 89 9 4 3 -18 69 -48 145 -30 76 -56 132 -59 124z"/>
<path d="M2320 4031 l-35 -6 3 -120 c1 -66 5 -126 7 -132 7 -20 93 -16 139 7
49 23 64 46 72 104 14 103 -68 168 -186 147z"/>
<path d="M5206 2812 c-25 -130 -46 -243 -46 -251 0 -12 22 -13 127 -7 70 4
130 9 132 12 6 6 -148 472 -158 479 -4 2 -29 -103 -55 -233z"/>
<path d="M1480 4821 c0 -10 19 -25 25 -20 1 2 -3 10 -11 17 -8 7 -14 8 -14 3z"/>
<path d="M1818 4353 c7 -3 16 -2 19 1 4 3 -2 6 -13 5 -11 0 -14 -3 -6 -6z"/>
<path d="M1700 3985 c-7 -9 -8 -15 -2 -15 5 0 12 7 16 15 3 8 4 15 2 15 -2 0
-9 -7 -16 -15z"/>
<path d="M0 3841 c0 -22 4 -31 12 -28 14 4 12 36 -3 52 -5 5 -9 -4 -9 -24z"/>
<path d="M0 3665 c0 -15 6 -25 14 -25 23 0 28 17 10 34 -21 21 -24 20 -24 -9z"/>
<path d="M8706 2723 c-6 -14 -5 -15 5 -6 7 7 10 15 7 18 -3 3 -9 -2 -12 -12z"/>
<path d="M8522 2505 c0 -16 2 -22 5 -12 2 9 2 23 0 30 -3 6 -5 -1 -5 -18z"/>
<path d="M8491 2484 c0 -11 3 -14 6 -6 3 7 2 16 -1 19 -3 4 -6 -2 -5 -13z"/>
<path d="M10166 2110 c-59 -10 -81 -18 -73 -27 4 -3 2 -12 -5 -20 -8 -11 -6
-18 11 -34 24 -22 21 -40 -3 -20 -15 12 -66 5 -66 -9 0 -5 10 -6 21 -3 19 5
20 4 10 -16 -10 -17 -9 -22 4 -27 9 -4 14 -13 11 -20 -3 -8 -2 -14 2 -14 12 0
43 -70 37 -80 -3 -5 -1 -11 5 -15 16 -10 12 -35 -5 -35 -9 0 -19 9 -23 20 -7
19 -9 19 -27 6 -18 -14 -18 -15 -2 -16 20 0 23 -16 3 -23 -12 -5 -12 -12 1
-49 8 -24 19 -47 24 -52 5 -6 9 -16 9 -24 0 -12 -3 -12 -17 -1 -18 15 -18 16
4 -38 6 -16 5 -16 -17 0 -33 23 -43 21 -35 -4 6 -19 4 -21 -14 -16 -26 6 -26
2 0 -34 22 -31 19 -48 -9 -50 -9 0 -3 -5 13 -10 28 -9 124 -5 188 7 l27 6 0
304 c0 237 -3 304 -12 303 -7 -1 -35 -5 -62 -9z m-99 -606 c-3 -3 -12 -4 -19
-1 -8 3 -5 6 6 6 11 1 17 -2 13 -5z"/>
<path d="M8300 1830 c-13 -8 -12 -10 3 -10 9 0 17 5 17 10 0 12 -1 12 -20 0z"/>
<path d="M8377 1791 c-27 -4 -51 -12 -55 -18 -4 -5 -119 -86 -257 -178 -137
-93 -324 -219 -415 -280 -285 -193 -540 -366 -695 -471 -82 -57 -267 -182
-410 -279 -143 -97 -366 -249 -495 -337 -129 -88 -257 -174 -285 -191 l-50
-32 97 -3 96 -3 77 52 c77 52 77 53 238 80 326 56 304 50 398 112 81 54 92 58
170 67 127 14 418 45 904 95 242 25 469 50 505 55 99 15 1068 121 1278 140
112 10 127 15 220 72 17 11 29 25 26 30 -4 6 -2 8 3 5 12 -7 51 14 265 145
125 76 167 108 121 94 -17 -5 -220 -38 -713 -117 -107 -17 -256 -41 -330 -53
l-135 -22 85 -41 c47 -23 96 -44 110 -48 28 -7 66 -32 59 -39 -2 -3 -56 8
-119 23 -63 16 -223 54 -355 86 -132 32 -373 90 -535 130 -162 41 -391 97
-507 125 -117 29 -213 55 -213 60 0 4 79 61 176 126 l175 118 47 -19 c60 -24
87 -24 329 10 196 27 199 28 199 51 0 17 -7 26 -23 30 -31 8 -29 15 13 65 36
43 36 44 15 57 -12 8 -21 22 -21 31 0 9 -6 23 -12 29 -10 10 -10 17 0 32 6 10
9 26 6 34 -4 11 0 13 18 10 20 -5 20 -3 -5 11 l-29 17 33 24 c18 13 35 27 38
32 3 4 25 22 49 41 23 18 40 37 36 42 -6 10 -54 10 -127 0z m890 -1117 c-3 -3
-12 -4 -19 -1 -8 3 -5 6 6 6 11 1 17 -2 13 -5z m-1452 -90 c-5 -2 -192 -33
-415 -69 -223 -35 -423 -68 -445 -71 l-40 -7 22 22 c12 11 26 21 30 21 4 0 22
12 38 26 76 65 90 69 340 75 307 7 482 8 470 3z"/>
<path d="M8408 1333 c6 -2 18 -2 25 0 6 3 1 5 -13 5 -14 0 -19 -2 -12 -5z"/>
<path d="M6049 686 c-2 -2 -92 -14 -199 -25 -107 -12 -256 -29 -329 -37 -74
-8 -137 -16 -139 -18 -2 -2 3 -13 10 -25 14 -23 40 -26 103 -11 22 5 85 16
140 24 55 8 154 24 220 35 66 11 132 21 146 21 25 0 87 39 63 40 -6 0 -13 -2
-15 -4z"/>
<path d="M2219 609 c-10 -6 -7 -9 14 -9 29 0 35 5 14 13 -8 3 -20 1 -28 -4z"/>
<path d="M1940 540 c-12 -8 -9 -10 13 -10 15 0 27 5 27 10 0 13 -20 13 -40 0z"/>
<path d="M10135 466 c-55 -35 -210 -132 -345 -216 -245 -152 -350 -225 -350
-241 0 -5 65 -9 145 -9 l144 0 113 71 c62 40 175 110 251 157 76 47 141 90
143 97 3 6 3 55 2 108 l-3 96 -100 -63z"/>
</g>
</svg>
