<?xml version="1.0" standalone="no"?>
<!DOCTYPE svg PUBLIC "-//W3C//DTD SVG 20010904//EN"
 "http://www.w3.org/TR/2001/REC-SVG-20010904/DTD/svg10.dtd">
<svg version="1.0" xmlns="http://www.w3.org/2000/svg"
 width="823.000000pt" height="556.000000pt" viewBox="0 0 823.000000 556.000000"
 preserveAspectRatio="xMidYMid meet">

<g transform="translate(0.000000,556.000000) scale(0.100000,-0.100000)"
fill="#000000" stroke="none">
<path d="M3585 5390 c-53 -107 -84 -159 -93 -155 -7 2 -87 61 -178 131 -91 69
-167 125 -168 123 -2 -2 -99 -292 -216 -644 -117 -352 -214 -641 -215 -642 -1
-2 -609 37 -1351 86 -742 49 -1350 88 -1351 87 -3 -3 1306 -2329 1316 -2339 5
-5 152 7 327 26 176 19 320 33 322 32 1 -1 -149 -311 -333 -690 -184 -378
-335 -689 -335 -691 0 -2 54 -1 120 3 71 3 120 2 120 -3 0 -5 -52 -164 -115
-353 -63 -190 -113 -347 -110 -349 2 -2 872 203 1932 456 l1928 461 1354 75
c745 42 1356 78 1358 80 2 1 -79 89 -179 195 -101 106 -184 197 -186 201 -4
10 -24 5 361 96 180 43 327 81 327 85 0 5 -1209 922 -1254 951 -6 4 -8 9 -6
11 3 3 185 24 405 47 220 22 409 45 419 49 16 6 -102 115 -663 617 -376 335
-693 612 -704 616 -12 4 -314 26 -672 49 -552 35 -652 44 -666 58 -9 9 -317
333 -684 721 -367 388 -682 720 -699 738 l-31 32 -80 -160z m2677 -1571 c74
-48 77 -58 65 -241 -5 -86 -7 -180 -3 -210 l7 -53 84 4 c74 3 84 1 79 -12 -3
-9 -12 -13 -21 -10 -11 4 -14 3 -9 -6 9 -13 -20 -51 -38 -51 -6 0 -24 -11 -40
-25 -17 -14 -40 -28 -54 -32 -22 -5 -23 -8 -18 -72 3 -36 8 -84 11 -105 10
-88 13 -166 5 -166 -5 0 -12 -17 -16 -37 -12 -69 -35 -112 -70 -133 -53 -33
-68 -18 -83 82 -7 46 -15 146 -18 223 -2 77 -6 145 -8 152 -6 18 -193 -35
-223 -64 -7 -7 -21 -13 -30 -13 -24 0 -93 -85 -122 -150 -13 -30 -32 -66 -42
-79 -10 -13 -18 -29 -18 -35 -1 -13 -35 -56 -45 -56 -4 0 -3 6 2 13 6 6 13 21
17 31 13 37 -46 -36 -66 -81 -18 -40 -35 -62 -22 -28 10 24 -13 17 -34 -10
-24 -30 -56 -32 -79 -5 -10 11 -23 20 -30 20 -21 0 -16 19 37 134 28 61 50
111 50 113 0 2 -11 1 -24 -3 -33 -8 -56 27 -56 87 0 59 24 91 82 108 74 22 95
39 134 103 21 35 76 122 124 193 102 153 133 204 188 305 55 102 84 128 147
133 28 2 59 4 69 5 11 1 41 -12 68 -29z m-446 3 c7 -4 15 -32 19 -63 8 -64 3
-70 -70 -88 -27 -7 -54 -16 -60 -20 -5 -5 -34 -14 -63 -21 l-54 -12 -95 -197
c-114 -234 -147 -314 -223 -531 -83 -237 -82 -232 -103 -262 -15 -20 -24 -25
-33 -17 -8 7 -17 5 -28 -6 -9 -9 -16 -13 -16 -8 0 5 -12 9 -27 8 -30 0 -27 -8
-48 120 -11 63 65 346 141 527 58 139 113 282 110 285 -2 2 -16 -3 -32 -11
-29 -15 -103 -40 -161 -55 -18 -5 -55 -32 -85 -63 -49 -50 -111 -94 -272 -192
l-64 -39 5 -41 c3 -23 19 -90 34 -151 16 -60 36 -136 44 -168 8 -32 22 -72 31
-88 22 -43 10 -49 -15 -8 -29 47 -26 29 4 -30 19 -39 22 -50 10 -54 -7 -3 -15
-16 -17 -29 -2 -17 -10 -24 -33 -26 -26 -2 -34 4 -62 45 -57 86 -153 331 -169
434 -4 21 -10 39 -15 39 -4 0 -49 -14 -100 -31 -96 -32 -122 -52 -137 -104 -8
-26 -37 -95 -114 -267 -21 -46 -31 -57 -41 -40 -2 4 -2 1 -1 -5 2 -7 -1 -23
-6 -35 -5 -14 -9 -17 -10 -8 -1 11 -4 9 -11 -5 -8 -17 -9 -16 -4 7 3 14 7 34
10 45 3 10 -7 -8 -22 -39 -16 -31 -35 -59 -43 -62 -8 -4 -28 -14 -44 -22 -28
-16 -29 -15 -58 14 l-30 29 40 115 c22 64 66 175 96 248 31 73 56 147 56 165
0 18 7 38 16 46 8 7 25 31 36 53 28 55 118 266 118 277 0 9 -36 -2 -76 -22
-32 -16 -59 -7 -62 21 -2 14 -15 37 -29 52 -51 53 -19 78 177 141 237 77 311
90 495 91 184 1 233 -11 285 -70 l30 -35 26 27 c15 14 48 32 73 39 222 61 325
84 418 94 94 10 246 12 259 3z m-2413 -106 c3 -8 -1 -20 -9 -27 -9 -7 -13 -21
-10 -34 4 -16 -5 -34 -37 -68 -38 -42 -51 -48 -137 -72 -188 -52 -340 -122
-340 -156 0 -6 -26 -63 -59 -128 l-58 -118 94 23 c140 34 178 38 212 23 30
-13 50 -39 31 -39 -6 0 -5 -8 2 -19 16 -26 -2 -47 -45 -56 -18 -4 -60 -15 -94
-26 -34 -11 -97 -29 -140 -40 -167 -42 -160 -35 -229 -226 -26 -70 -64 -164
-85 -208 -20 -44 -41 -93 -45 -109 -6 -24 -9 -27 -18 -14 -10 13 -13 14 -25 1
-7 -8 -24 -13 -37 -10 -14 2 -25 -1 -28 -9 -3 -8 -20 -14 -41 -14 -68 0 -69
65 -4 258 22 63 39 118 39 123 0 24 105 269 174 407 l75 150 -32 29 c-18 15
-46 38 -62 50 l-30 22 20 38 c18 35 29 41 130 78 72 26 120 50 138 69 24 24
34 27 63 23 23 -4 72 5 152 28 191 56 423 83 435 51z m592 -47 c4 -5 -1 -19
-10 -29 -9 -10 -15 -24 -14 -32 7 -36 -68 -118 -108 -118 -36 0 -169 -38 -236
-67 -63 -27 -71 -34 -105 -94 -21 -35 -46 -76 -56 -92 l-19 -28 29 12 c42 16
310 69 350 69 48 0 53 -18 13 -51 l-34 -28 28 -1 c35 0 34 -9 -5 -45 -23 -20
-60 -36 -121 -52 -48 -13 -98 -29 -110 -37 -12 -7 -53 -22 -92 -31 -38 -10
-74 -22 -80 -27 -5 -4 -19 -8 -31 -8 -12 0 -26 -6 -32 -12 -18 -23 -72 -189
-72 -224 0 -32 2 -34 28 -28 15 4 56 20 92 36 105 48 300 124 374 147 102 31
219 25 156 -9 -24 -13 -26 -30 -3 -30 15 0 15 -1 -1 -19 -9 -10 -16 -24 -14
-31 3 -13 -6 -19 -70 -46 -24 -10 -49 -25 -55 -34 -14 -19 -121 -80 -140 -80
-8 0 -24 -9 -37 -20 -13 -11 -28 -20 -35 -20 -6 0 -57 -22 -113 -50 -56 -27
-106 -50 -111 -50 -5 0 -35 -14 -67 -31 -65 -34 -92 -34 -168 -3 -61 25 -81
57 -80 124 1 59 63 338 87 392 8 18 32 76 52 128 21 52 73 168 116 258 44 90
79 166 79 169 0 3 11 21 26 40 29 38 53 41 94 12 l29 -22 128 31 c157 38 160
39 255 41 45 0 80 -3 83 -10z m-1919 -64 c16 -8 45 -15 66 -15 30 0 41 -6 67
-39 18 -22 37 -55 43 -73 6 -18 28 -58 49 -88 49 -72 63 -130 56 -238 -6 -107
-24 -161 -113 -347 -39 -82 -69 -120 -182 -232 -123 -122 -235 -170 -377 -161
-61 4 -82 10 -123 37 -134 85 -166 235 -98 444 38 117 89 223 149 312 107 157
290 360 359 398 40 21 67 22 104 2z m4353 -1259 c17 -9 32 -29 40 -54 12 -37
12 -44 -7 -74 -19 -32 -56 -119 -112 -268 -16 -41 -38 -100 -49 -130 -25 -66
-27 -95 -6 -86 58 22 159 46 205 48 l55 3 -1 -40 c-1 -38 -3 -40 -65 -72 -35
-18 -68 -33 -73 -33 -5 0 -62 -30 -127 -66 -77 -42 -125 -63 -137 -60 -12 4
-26 27 -37 60 -18 52 -18 54 5 152 12 54 33 131 45 169 39 122 156 439 167
452 14 17 63 16 97 -1z m-466 -48 c47 -18 57 -52 57 -199 l0 -132 55 6 c31 3
55 2 55 -4 0 -5 -4 -9 -10 -9 -5 0 -10 -6 -10 -14 0 -8 -20 -27 -44 -42 -35
-22 -45 -35 -50 -63 -3 -22 -1 -38 7 -43 7 -4 8 -8 2 -8 -5 0 -11 -15 -12 -33
-1 -25 0 -28 7 -12 7 19 8 18 14 -5 7 -30 9 -58 6 -85 l-1 -20 -9 20 c-5 14
-7 4 -6 -31 1 -38 -4 -57 -18 -73 -32 -35 -53 -27 -65 27 -17 74 -31 173 -31
220 l0 44 -32 -7 c-67 -14 -154 -64 -181 -103 -15 -21 -27 -41 -27 -44 0 -13
-52 -119 -57 -115 -2 3 3 19 11 36 32 60 15 44 -22 -22 -21 -37 -41 -65 -44
-61 -4 3 -14 -6 -23 -20 -17 -25 -36 -25 -62 0 -18 17 -17 22 17 104 23 57 26
71 14 66 -26 -10 -44 13 -44 54 0 41 13 56 71 82 29 13 46 33 80 95 23 43 57
101 75 128 17 28 54 96 82 152 29 56 60 106 69 112 24 13 91 13 126 -1z m-378
-50 c33 -15 32 -30 -8 -113 -56 -117 -135 -365 -163 -512 -15 -76 -33 -145
-41 -154 -15 -18 -65 -17 -71 0 -2 6 -8 9 -13 5 -9 -5 -12 22 -9 121 3 110 79
427 132 550 17 39 32 72 34 74 3 3 101 39 111 41 1 0 14 -5 28 -12z m-386 -48
c67 -53 76 -86 50 -186 -17 -64 -59 -157 -59 -129 0 5 -7 -1 -16 -13 -12 -18
-24 -22 -52 -20 -37 3 -37 3 -36 49 0 25 8 71 18 103 10 31 16 60 13 63 -4 3
-33 -22 -67 -55 -48 -48 -72 -85 -115 -174 -48 -99 -55 -121 -55 -174 0 -68
14 -89 67 -100 44 -9 119 33 209 118 26 25 46 37 57 33 8 -4 13 -13 10 -21 -3
-8 0 -20 6 -28 9 -11 3 -24 -27 -62 -89 -112 -182 -169 -295 -179 -102 -10
-157 32 -182 137 -7 29 -14 46 -14 37 -1 -9 -14 -22 -30 -29 -16 -6 -43 -24
-59 -38 -17 -15 -73 -49 -124 -76 -51 -27 -122 -64 -158 -84 -68 -36 -112 -42
-153 -21 -32 18 -46 40 -47 75 0 58 38 239 69 329 l32 90 -48 -46 c-45 -43
-78 -64 -95 -61 -5 1 -8 -2 -8 -7 0 -13 -77 -61 -98 -61 -9 0 -26 -6 -37 -14
-11 -7 -24 -14 -30 -15 -5 -1 -27 -7 -48 -13 -46 -14 -54 -31 -98 -197 -27
-102 -49 -158 -49 -124 0 7 -19 1 -45 -12 -43 -23 -45 -24 -55 -5 -16 29 30
257 71 355 5 11 26 71 48 133 l39 112 -34 0 c-29 0 -36 5 -47 33 -8 17 -12 38
-9 45 20 56 367 140 485 118 43 -8 97 -50 97 -76 0 -39 20 -28 37 20 10 29 26
60 36 71 17 18 20 19 47 3 27 -16 32 -16 116 11 49 15 118 30 153 33 63 5 63
5 56 -19 -23 -80 -36 -92 -130 -119 -22 -6 -65 -22 -95 -36 -50 -23 -58 -32
-82 -86 -16 -35 -23 -58 -15 -56 231 60 292 69 242 32 -17 -13 -18 -16 -5 -24
12 -8 11 -13 -8 -33 -13 -14 -36 -27 -52 -31 -16 -3 -46 -13 -67 -22 -21 -10
-69 -29 -108 -44 l-70 -26 -22 -65 c-26 -74 -29 -109 -10 -109 8 0 70 26 138
59 137 64 230 101 258 101 14 0 22 15 35 68 38 155 195 403 296 467 72 45 106
44 169 -5z m-1689 -150 c26 -14 60 -76 60 -111 0 -35 -54 -179 -79 -210 -17
-21 -18 -21 -57 -4 -21 10 -41 20 -43 22 -2 1 4 23 14 48 9 26 15 49 11 52
-21 21 -266 -144 -266 -180 0 -10 78 -6 250 13 153 17 209 -9 211 -97 2 -69 0
-75 -28 -104 -26 -28 -193 -119 -217 -119 -8 0 -16 -5 -18 -11 -2 -6 -16 -11
-31 -11 -15 0 -24 -4 -22 -8 3 -5 -9 -13 -27 -19 -39 -14 -51 -14 -43 -1 4 6
10 8 15 5 5 -3 14 1 22 8 7 8 32 26 55 40 54 34 63 48 22 37 -18 -5 -34 -12
-38 -16 -3 -4 2 -4 12 -1 11 4 16 3 12 -3 -3 -6 -17 -10 -29 -10 -33 0 -202
-91 -190 -102 3 -3 0 -9 -7 -14 -8 -4 -10 -3 -5 4 9 15 1 15 -25 1 -11 -5 -17
-14 -15 -18 3 -4 0 -8 -7 -9 -7 0 -21 -2 -32 -4 -27 -4 -33 46 -9 73 18 20
266 166 381 223 39 19 75 41 78 47 9 13 -87 5 -205 -16 -182 -34 -205 -31
-240 28 -42 68 -18 129 97 237 94 90 180 150 288 202 93 44 82 40 105 28z
m-510 -99 c0 -6 -5 -13 -11 -16 -6 -4 -8 -13 -5 -20 9 -25 -47 -72 -99 -85
-27 -6 -76 -24 -109 -38 -52 -24 -61 -33 -88 -86 -16 -32 -27 -60 -25 -62 2
-3 17 0 33 6 40 15 190 50 216 50 21 0 21 0 -2 -25 -19 -21 -21 -25 -7 -25 46
0 -7 -46 -76 -67 -28 -8 -60 -21 -71 -28 -12 -7 -51 -23 -89 -36 l-67 -23 -20
-64 c-23 -74 -25 -112 -7 -112 6 0 64 25 127 56 143 70 231 104 272 104 30 0
31 0 13 -20 -12 -13 -14 -20 -5 -20 9 0 10 -3 1 -13 -6 -8 -8 -16 -5 -20 3 -3
-9 -13 -28 -22 -18 -10 -44 -28 -58 -40 -14 -13 -56 -40 -95 -60 -277 -147
-275 -146 -331 -125 -15 6 -33 18 -40 28 -43 56 26 348 148 626 50 116 57 123
95 102 27 -16 32 -16 123 13 93 29 210 41 210 22z"/>
<path d="M6085 3418 c-22 -34 -49 -76 -60 -94 -12 -18 -28 -41 -38 -52 -26
-28 -21 -32 21 -18 20 7 56 17 80 21 l42 7 0 99 c0 54 -1 99 -2 99 -2 0 -21
-28 -43 -62z"/>
<path d="M6283 3075 c0 -8 4 -12 9 -9 5 3 6 10 3 15 -9 13 -12 11 -12 -6z"/>
<path d="M5706 2853 c-6 -14 -5 -15 5 -6 7 7 10 15 7 18 -3 3 -9 -2 -12 -12z"/>
<path d="M5685 2819 c-4 -6 -5 -12 -2 -15 2 -3 7 2 10 11 7 17 1 20 -8 4z"/>
<path d="M4655 3583 c-115 -16 -186 -34 -192 -48 -2 -7 1 -24 7 -40 10 -25 6
-40 -35 -123 -25 -52 -43 -97 -41 -99 10 -10 294 144 358 195 61 48 92 92 75
109 -16 15 -91 18 -172 6z"/>
<path d="M4130 2896 c-23 -54 -23 -56 -12 -56 9 0 44 91 37 98 -2 3 -14 -16
-25 -42z"/>
<path d="M2055 3331 c-43 -27 -103 -93 -182 -201 -132 -179 -190 -307 -218
-482 -17 -110 134 -72 261 65 136 147 234 343 234 468 0 58 -22 132 -46 157
-16 15 -13 15 -49 -7z"/>
<path d="M5846 2002 c-22 -37 -46 -75 -54 -84 -18 -22 -20 -22 48 2 30 10 56
25 58 32 1 7 -1 36 -5 65 l-8 52 -39 -67z"/>
<path d="M3996 1952 c-40 -14 -50 -22 -52 -42 -1 -15 -14 -55 -28 -90 -14 -35
-24 -65 -22 -67 2 -3 19 3 38 13 92 47 218 154 218 185 0 16 -8 19 -52 19 -29
-1 -75 -9 -102 -18z"/>
</g>
</svg>
